{
	"asset":{
		"generator":"Khronos glTF Blender I/O v4.3.47",
		"version":"2.0"
	},
	"scene":0,
	"scenes":[
		{
			"name":"Scene",
			"nodes":[
				0,
				1,
				2,
				3,
				4,
				5,
				6
			]
		}
	],
	"nodes":[
		{
			"mesh":0,
			"name":"Plane"
		},
		{
			"mesh":1,
			"name":"Suzanne",
			"translation":[
				0,
				0.48098284006118774,
				0
			]
		},
		{
			"mesh":1,
			"name":"Suzanne.001",
			"translation":[
				0.6192601919174194,
				0.19852960109710693,
				0.2735068202018738
			]
		},
		{
			"mesh":1,
			"name":"Suzanne.002",
			"translation":[
				-1.2555737495422363,
				0.0022814571857452393,
				-0.20621520280838013
			]
		},
		{
			"mesh":1,
			"name":"Suzanne.003",
			"translation":[
				-1.2667590379714966,
				0.594536542892456,
				0.301555871963501
			]
		},
		{
			"mesh":1,
			"name":"Suzanne.004",
			"translation":[
				0.9310730695724487,
				0.3372153043746948,
				-0.3717128038406372
			]
		},
		{
			"mesh":1,
			"name":"Suzanne.005",
			"translation":[
				1.646317958831787,
				-0.053809285163879395,
				0.2266629934310913
			]
		}
	],
	"materials":[
		{
			"doubleSided":true,
			"name":"Material",
			"pbrMetallicRoughness":{
				"roughnessFactor":0
			}
		}
	],
	"meshes":[
		{
			"name":"Plane.001",
			"primitives":[
				{
					"attributes":{
						"_COLOR":0,
						"POSITION":1,
						"NORMAL":2,
						"COLOR_1":3
					},
					"indices":4,
					"material":0
				}
			]
		},
		{
			"name":"Suzanne",
			"primitives":[
				{
					"attributes":{
						"POSITION":5,
						"NORMAL":6,
						"TEXCOORD_0":7,
						"COLOR_0":8
					},
					"indices":9,
					"material":0
				}
			]
		}
	],
	"accessors":[
		{
			"bufferView":0,
			"componentType":5123,
			"count":4096,
			"normalized":true,
			"type":"VEC4"
		},
		{
			"bufferView":1,
			"componentType":5126,
			"count":4096,
			"max":[
				5,
				0.6353607177734375,
				5
			],
			"min":[
				-5,
				-0.5277973413467407,
				-5
			],
			"type":"VEC3"
		},
		{
			"bufferView":2,
			"componentType":5126,
			"count":4096,
			"type":"VEC3"
		},
		{
			"bufferView":3,
			"componentType":5123,
			"count":4096,
			"normalized":true,
			"type":"VEC4"
		},
		{
			"bufferView":4,
			"componentType":5123,
			"count":23814,
			"type":"SCALAR"
		},
		{
			"bufferView":5,
			"componentType":5126,
			"count":1966,
			"max":[
				0.4221654534339905,
				0.3039591312408447,
				0.26294881105422974
			],
			"min":[
				-0.4221654534339905,
				-0.3039591312408447,
				-0.26294881105422974
			],
			"type":"VEC3"
		},
		{
			"bufferView":6,
			"componentType":5126,
			"count":1966,
			"type":"VEC3"
		},
		{
			"bufferView":7,
			"componentType":5126,
			"count":1966,
			"type":"VEC2"
		},
		{
			"bufferView":8,
			"componentType":5126,
			"count":1966,
			"type":"VEC3"
		},
		{
			"bufferView":9,
			"componentType":5123,
			"count":2904,
			"type":"SCALAR"
		}
	],
	"bufferViews":[
		{
			"buffer":0,
			"byteLength":32768,
			"byteOffset":0,
			"target":34962
		},
		{
			"buffer":0,
			"byteLength":49152,
			"byteOffset":32768,
			"target":34962
		},
		{
			"buffer":0,
			"byteLength":49152,
			"byteOffset":81920,
			"target":34962
		},
		{
			"buffer":0,
			"byteLength":32768,
			"byteOffset":131072,
			"target":34962
		},
		{
			"buffer":0,
			"byteLength":47628,
			"byteOffset":163840,
			"target":34963
		},
		{
			"buffer":0,
			"byteLength":23592,
			"byteOffset":211468,
			"target":34962
		},
		{
			"buffer":0,
			"byteLength":23592,
			"byteOffset":235060,
			"target":34962
		},
		{
			"buffer":0,
			"byteLength":15728,
			"byteOffset":258652,
			"target":34962
		},
		{
			"buffer":0,
			"byteLength":23592,
			"byteOffset":274380,
			"target":34962
		},
		{
			"buffer":0,
			"byteLength":5808,
			"byteOffset":297972,
			"target":34963
		}
	],
	"buffers":[
		{
			"byteLength":303780,
			"uri":"Import.bin"
		}
	]
}
